<?xml version="1.0" encoding="UTF-8"?>
<svg id="Layer_1" xmlns="http://www.w3.org/2000/svg" version="1.1" viewBox="0 0 500 500">
  <!-- Generator: Adobe Illustrator 29.0.1, SVG Export Plug-In . SVG Version: 2.1.0 Build 192)  -->
  <defs>
    <style>
      .st0, .st1, .st2 {
        fill: #fff;
      }

      .st3 {
        fill: #34113f;
      }

      .st3, .st1, .st2, .st4, .st5, .st6 {
        display: none;
      }

      .st2 {
        stroke: #000;
        stroke-miterlimit: 10;
      }

      .st7 {
        fill: #333;
      }

      .st4 {
        font-family: Asar-Regular, Asar;
        font-size: 130px;
      }

      .st6, .st8 {
        fill: #beb7df;
      }

      .st9 {
        fill: #f5f5f5;
      }
    </style>
  </defs>
  <path class="st2" d="M35.52,173.56c-3.37,65.91,65.44,86.01,77.84,159.67,8.27,49.11-14.78,84.92-5.39,88.81,9.02,3.73,38.08-26.03,43.23-61.96,7.64-53.28-40.55-97.18-35.33-101.6,8.48-7.19,121.69,120.41,133.11,111.52,4.02-3.13-4.52-23.28-15.88-39.69-39.65-57.31-103.16-53.97-107.35-84.44-2.82-20.54,25.53-25.77,42.13-68.15,15.5-39.57,8.52-80.33,2.27-81.23-11.51-1.64-26.54,130.64-58.67,131.62-26.63.81-46.7-89.13-64.62-85.41-7.53,1.57-10.74,18.84-11.36,30.88Z"/>
  <rect class="st3" y="2.67" width="500" height="500"/>
  <text class="st4" transform="translate(163.3 303.57)"><tspan x="0" y="0">K</tspan><tspan class="st8" x="84.89" y="0">Y</tspan></text>
  <path class="st5" d="M168.81,427.18c0-.57.39-1.07,1.16-1.5.77-.43,1.67-.81,2.69-1.14s2.05-.64,3.12-.93c1.06-.29,1.84-.57,2.32-.86v-78.29c-.49-.34-1.26-.65-2.32-.93-1.07-.28-2.1-.65-3.12-1.1s-1.91-.93-2.69-1.44c-.78-.51-1.16-1.1-1.16-1.78s.17-1.53.51-2.55c.34-1.02,1.09-1.53,2.25-1.53h24.24c1.74,0,3,.47,3.77,1.4.77.93,1.16,1.67,1.16,2.21,0,1.32-.51,2.22-1.52,2.71-1.02.49-2.15.9-3.41,1.23-1.26.33-2.44.74-3.56,1.23-1.11.49-1.72,1.39-1.81,2.71v42.15l34.69-44.29c-.39-.23-1.11-.48-2.18-.76-1.07-.28-2.1-.65-3.12-1.1s-1.94-.96-2.76-1.53c-.82-.57-1.23-1.19-1.23-1.87s.17-1.53.51-2.55c.34-1.02,1.09-1.53,2.25-1.53h25.4c1.74,0,3,.42,3.77,1.26.77.84,1.16,1.51,1.16,2.01,0,.89-.56,1.64-1.67,2.23-1.11.59-2.39,1.12-3.85,1.56-1.45.45-2.83.87-4.14,1.27s-2.15.84-2.54,1.34l-23.51,27.96,30.62,48.29c.48.76,1.52,1.43,3.12,2,1.6.57,3.51,1.14,5.73,1.71.87.19,1.55.45,2.03.79.48.33.73.97.73,1.93,0,.48-.39,1.12-1.16,1.93-.78.81-2.03,1.21-3.77,1.21h-27.28c-1.16,0-1.91-.43-2.25-1.29-.34-.86-.51-1.57-.51-2.14s.39-1.07,1.16-1.5c.77-.43,1.67-.81,2.68-1.14,1.02-.33,2.05-.64,3.12-.93,1.06-.29,1.84-.57,2.32-.86l-24.53-40.86-14.8,17v21.14c0,1.43.53,2.41,1.6,2.93,1.06.52,2.25.9,3.56,1.14,1.31.24,2.49.55,3.56.93,1.06.38,1.6,1.19,1.6,2.43,0,.48-.39,1.12-1.16,1.93-.78.81-2.03,1.21-3.77,1.21h-24.24c-1.16,0-1.91-.43-2.25-1.29-.34-.86-.51-1.57-.51-2.14Z"/>
  <path class="st6" d="M305.98,424.01c-1.36-.37-2.88-.67-4.57-.9-1.69-.23-3.26-.55-4.71-.97-1.45-.42-2.23-1.27-2.32-2.56v-27l23.72-42.86c-2.11-2.12-3.86-4.52-4.95-7.41-.46-.29-.91-.6-1.36-.92-1.71-.14-3.58-.03-4.38.27-1.73.65-3.03,1.65-4.36,2.57.53.22,1.1.43,1.72.62,1.22.38,2.44.71,3.66.99,1.22.27,2.11.58,2.67.91l-21.52,39.04-21.94-39.32c.56-.33,1.36-.58,2.39-.74,1.03-.16,2.09-.41,3.16-.74.21-.06.38-.15.58-.22-.01-.01-.03-.02-.04-.04-1.18-1.51-2.13-3.04-2.88-4.7-1.26.33-2.61.21-3.67-.57-.05-.04-.09-.06-.13-.09-.52-.01-1.05.01-1.56.07-1.12.13-2.25.42-3.36.64-.65.12-1.28.24-1.91.34-.44,1.35-1.1,2.63-1.88,3.82-.39.6-.8,1.19-1.16,1.82-.02.03-.08.15-.15.27-.06.2-.21.61-.23.69-.15.58-.42,1.09-.74,1.54l25.64,43.74v29.63c-.75.37-1.85.65-3.31.83-1.45.18-2.93.42-4.43.69-1.5.28-2.79.62-3.87,1.04-1.08.42-1.62.99-1.62,1.73,0,.55.16,1.36.49,2.42.33,1.06,1.06,1.59,2.18,1.59h32.07c1.69,0,2.91-.51,3.66-1.52.75-1.01,1.13-1.75,1.13-2.21,0-1.29-.68-2.12-2.04-2.49Z"/>
  <path class="st6" d="M287.82,400.62l-32.19-32.19c-19.85-19.85,12.23-51.93,32.08-32.08,18.66-18.66,50.85,13.52,32.19,32.19l-32.08,32.08Z"/>
  <path class="st1" d="M288.29,386.8c-3.73-.07-13.9-13.67-21.21-21.21-16.93-16.93,4.27-38.14,21.21-21.21,16.53-16.53,37.74,4.67,21.21,21.21,0,0-17.47,21.28-21.21,21.21Z"/>
  <path class="st6" d="M388.11,167.21l-52.27,75.66-49.3-73.85c-9.41,7.02-13.06,14.36-16.63,24.77l51.5,74.33-.64,79.85c-.03,3.97,1.33,7.32,4.1,10.05,2.76,2.73,6.1,4.12,10.02,4.15,3.92.03,7.23-1.3,9.93-3.99,2.7-2.69,4.07-6.02,4.1-9.99l.64-79.85,59.07-82.08c-4.48-7.05-13.86-14.01-20.52-19.06Z"/>
  <path class="st1" d="M292.79,222.86c-1.65,0-3.03-.57-4.16-1.69-1.13-1.12-1.69-2.51-1.69-4.16v-77.61c0-2.34.82-4.35,2.47-6.04,1.65-1.69,3.64-2.54,5.98-2.54h1.69c1.47,0,2.82.35,4.03,1.04,1.21.69,2.25,1.65,3.12,2.86l50.05,72.28v-70.2c0-1.65.56-3.05,1.69-4.22,1.13-1.17,2.51-1.76,4.16-1.76s3.06.58,4.23,1.76c1.17,1.17,1.75,2.58,1.75,4.22v77.61c0,2.34-.85,4.33-2.54,5.98-1.69,1.65-3.71,2.47-6.04,2.47h-1.56c-1.39,0-2.69-.33-3.9-.98-1.21-.65-2.21-1.5-2.99-2.54l-50.31-72.67v70.33c0,1.65-.58,3.04-1.76,4.16-1.17,1.12-2.58,1.69-4.22,1.69Z"/>
  <path class="st1" d="M86.29,353.61c0-1.39.82-2.61,2.48-3.65,1.65-1.04,3.57-1.97,5.74-2.78s4.39-1.57,6.67-2.27c2.27-.7,3.92-1.39,4.96-2.09v-190.81c-1.04-.83-2.69-1.59-4.96-2.28-2.28-.69-4.5-1.59-6.67-2.69-2.17-1.11-4.08-2.28-5.74-3.52-1.66-1.24-2.48-2.69-2.48-4.35s.36-3.73,1.08-6.21c.72-2.49,2.33-3.73,4.81-3.73h51.78c3.72,0,6.41,1.14,8.06,3.4,1.65,2.27,2.48,4.07,2.48,5.39,0,3.21-1.09,5.4-3.25,6.61-2.17,1.2-4.6,2.21-7.29,3-2.69.8-5.22,1.8-7.6,3-2.38,1.2-3.67,3.4-3.88,6.6v102.72l74.1-107.94c-.83-.55-2.38-1.17-4.65-1.86-2.28-.69-4.5-1.59-6.67-2.69s-4.14-2.35-5.89-3.73c-1.76-1.38-2.64-2.9-2.64-4.55s.36-3.73,1.09-6.21c.72-2.49,2.33-3.73,4.81-3.73h54.26c3.72,0,6.4,1.03,8.06,3.08,1.65,2.06,2.48,3.69,2.48,4.89,0,2.18-1.19,4-3.57,5.44-2.38,1.45-5.12,2.72-8.22,3.8-3.1,1.09-6.05,2.12-8.84,3.08-2.79.97-4.6,2.05-5.43,3.26l-50.23,68.16,65.42,117.69c1.03,1.86,3.25,3.48,6.67,4.88,3.41,1.39,7.49,2.78,12.25,4.18,1.86.47,3.3,1.11,4.34,1.92,1.03.81,1.55,2.38,1.55,4.7,0,1.16-.83,2.73-2.48,4.7-1.66,1.97-4.34,2.96-8.06,2.96h-58.29c-2.48,0-4.08-1.04-4.81-3.13-.73-2.09-1.09-3.83-1.09-5.22s.82-2.61,2.48-3.65c1.65-1.04,3.57-1.97,5.74-2.78,2.17-.81,4.39-1.57,6.67-2.27,2.27-.7,3.92-1.39,4.96-2.09l-52.4-99.59-31.63,41.44v51.53c0,3.48,1.13,5.86,3.41,7.14,2.27,1.28,4.81,2.21,7.6,2.79,2.79.58,5.32,1.33,7.6,2.26,2.27.93,3.41,2.9,3.41,5.92,0,1.16-.83,2.73-2.48,4.7-1.66,1.97-4.34,2.96-8.06,2.96h-51.78c-2.48,0-4.08-1.04-4.81-3.13-.73-2.09-1.08-3.83-1.08-5.22Z"/>
  <path class="st6" d="M262.87,209.04c-1.36-.37-2.88-.67-4.57-.9-1.69-.23-3.26-.55-4.71-.97-1.45-.42-2.23-1.27-2.32-2.56v-27l23.72-42.86c-2.11-2.12-3.86-4.52-4.95-7.41-.46-.29-.91-.6-1.36-.92-1.71-.14-3.58-.03-4.38.27-1.73.65-3.03,1.65-4.36,2.57.53.22,1.1.43,1.72.62,1.22.38,2.44.71,3.66.99,1.22.27,2.11.58,2.67.91l-21.52,39.04-21.94-39.32c.56-.33,1.36-.58,2.39-.74,1.03-.16,2.09-.41,3.16-.74.21-.06.38-.15.58-.22-.01-.01-.03-.02-.04-.04-1.18-1.51-2.13-3.04-2.88-4.7-1.26.33-2.61.21-3.67-.57-.05-.04-.09-.06-.13-.09-.52-.01-1.05.01-1.56.07-1.12.13-2.25.42-3.36.64-.65.12-1.28.24-1.91.34-.44,1.35-1.1,2.63-1.88,3.82-.39.6-.8,1.19-1.16,1.82-.02.03-.08.15-.15.27-.06.2-.21.61-.23.69-.15.58-.42,1.09-.74,1.54l25.64,43.74v29.63c-.75.37-1.85.65-3.31.83-1.45.18-2.93.42-4.43.69-1.5.28-2.79.62-3.87,1.04-1.08.42-1.62.99-1.62,1.73,0,.55.16,1.36.49,2.42.33,1.06,1.06,1.59,2.18,1.59h32.07c1.69,0,2.91-.51,3.66-1.52.75-1.01,1.13-1.75,1.13-2.21,0-1.29-.68-2.12-2.04-2.49Z"/>
  <g class="st5">
    <path class="st8" d="M335.72,281.49l-73.34-69.16c-45.23-42.65,23.7-115.75,68.93-73.1,40.1-42.53,113.44,26.63,73.34,69.16l-68.93,73.1Z"/>
    <path class="st0" d="M335.85,250.87c-8.27.09-31.65-29.35-48.31-45.56-38.58-36.39,6.98-84.7,45.56-48.31,35.52-37.67,83.83,7.9,48.31,45.56,0,0-37.29,48.23-45.56,48.31Z"/>
  </g>
  <g class="st5">
    <path class="st0" d="M282.53,212.05c0-.57.39-1.07,1.17-1.5.78-.43,1.68-.81,2.7-1.15,1.02-.33,2.07-.64,3.14-.93,1.07-.29,1.85-.58,2.33-.86v-76.19c-.1-.88-.63-1.59-1.6-2.14-.97-.55-2.04-1.04-3.21-1.48s-2.21-.9-3.14-1.4c-.92-.49-1.39-1.12-1.39-1.89,0-.66.17-1.64.51-2.96.34-1.32,1.09-1.97,2.26-1.97h11.67c1.07,0,1.92.29,2.55.88.63.59,1.34,1.42,2.12,2.49l46.68,62.76,7.29,14.92v-71.66c-.49-.34-1.27-.68-2.33-1.02-1.07-.34-2.12-.71-3.14-1.11s-1.92-.85-2.7-1.37c-.78-.51-1.17-1.11-1.17-1.79s.17-1.53.51-2.56c.34-1.03,1.09-1.54,2.26-1.54h21.3c1.75,0,3.01.41,3.79,1.24.78.83,1.17,1.48,1.17,1.97,0,1.27-.54,2.09-1.6,2.48-1.07.39-2.26.71-3.57.95-1.31.24-2.51.63-3.57,1.17-1.07.54-1.61,1.53-1.61,2.99v81.46c0,.97-.32,1.7-.95,2.19-.63.49-1.41.85-2.33,1.09-.92.24-1.92.36-2.99.36h-2.92l-45.66-58.39-9.19-16.21v64.05c0,1.44.53,2.42,1.6,2.94,1.07.53,2.26.91,3.57,1.15,1.31.24,2.5.55,3.57.93,1.07.38,1.6,1.2,1.6,2.44,0,.47-.39,1.1-1.17,1.9-.78.79-2.04,1.19-3.79,1.19h-21.01c-1.17,0-1.92-.43-2.26-1.29-.34-.86-.51-1.58-.51-2.15Z"/>
  </g>
  <g class="st5">
    <path d="M324.6,426.87c0-.57.39-1.07,1.17-1.5.78-.43,1.68-.81,2.7-1.15,1.02-.33,2.07-.64,3.14-.93,1.07-.29,1.85-.58,2.33-.86v-76.19c-.1-.88-.63-1.59-1.6-2.14-.97-.55-2.04-1.04-3.21-1.48s-2.21-.9-3.14-1.4c-.92-.49-1.39-1.12-1.39-1.89,0-.66.17-1.64.51-2.96.34-1.32,1.09-1.97,2.26-1.97h11.67c1.07,0,1.92.29,2.55.88.63.59,1.34,1.42,2.12,2.49l46.68,62.76,7.29,14.92v-71.66c-.49-.34-1.27-.68-2.33-1.02-1.07-.34-2.12-.71-3.14-1.11s-1.92-.85-2.7-1.37c-.78-.51-1.17-1.11-1.17-1.79s.17-1.53.51-2.56c.34-1.03,1.09-1.54,2.26-1.54h21.3c1.75,0,3.01.41,3.79,1.24.78.83,1.17,1.48,1.17,1.97,0,1.27-.54,2.09-1.6,2.48-1.07.39-2.26.71-3.57.95-1.31.24-2.51.63-3.57,1.17-1.07.54-1.61,1.53-1.61,2.99v81.46c0,.97-.32,1.7-.95,2.19-.63.49-1.41.85-2.33,1.09-.92.24-1.92.36-2.99.36h-2.92l-45.66-58.39-9.19-16.21v64.05c0,1.44.53,2.42,1.6,2.94,1.07.53,2.26.91,3.57,1.15,1.31.24,2.5.55,3.57.93,1.07.38,1.6,1.2,1.6,2.44,0,.47-.39,1.1-1.17,1.9-.78.79-2.04,1.19-3.79,1.19h-21.01c-1.17,0-1.92-.43-2.26-1.29-.34-.86-.51-1.58-.51-2.15Z"/>
  </g>
  <path class="st1" d="M382.42,113.85s-.28,10.65,8.72,18.1c8.99,7.45,23.55,15.9,23.55,15.9,0,0,6.6-5.1.97-12.28-5.63-7.18-33.23-21.71-33.23-21.71Z"/>
  <path class="st1" d="M383.56,74.35s-3.48,17.63,9.31,32.55c12.79,14.92,34.51,33.07,34.51,33.07,0,0,12.39-6.61,5.09-20.15-7.3-13.53-48.91-45.47-48.91-45.47Z"/>
  <path class="st7" d="M376.71,156.02l-52.27,75.66-49.3-73.85c-9.41,7.02-13.06,14.36-16.63,24.77l51.5,74.33-.64,79.85c-.03,3.97,1.33,7.32,4.1,10.05,2.76,2.73,6.1,4.12,10.02,4.15,3.92.03,7.23-1.3,9.93-3.99,2.7-2.69,4.07-6.02,4.1-9.99l.64-79.85,59.07-82.08c-4.48-7.05-13.86-14.01-20.52-19.06Z"/>
  <path class="st7" d="M74.9,342.42c0-1.39.82-2.61,2.48-3.65,1.65-1.04,3.57-1.97,5.74-2.78s4.39-1.57,6.67-2.27c2.27-.7,3.92-1.39,4.96-2.09v-190.81c-1.04-.83-2.69-1.59-4.96-2.28-2.28-.69-4.5-1.59-6.67-2.69-2.17-1.11-4.08-2.28-5.74-3.52-1.66-1.24-2.48-2.69-2.48-4.35s.36-3.73,1.08-6.21c.72-2.49,2.33-3.73,4.81-3.73h51.78c3.72,0,6.41,1.14,8.06,3.4,1.65,2.27,2.48,4.07,2.48,5.39,0,3.21-1.09,5.4-3.25,6.61-2.17,1.2-4.6,2.21-7.29,3-2.69.8-5.22,1.8-7.6,3-2.38,1.2-3.67,3.4-3.88,6.6v102.72l74.1-107.94c-.83-.55-2.38-1.17-4.65-1.86-2.28-.69-4.5-1.59-6.67-2.69s-4.14-2.35-5.89-3.73c-1.76-1.38-2.64-2.9-2.64-4.55s.36-3.73,1.09-6.21c.72-2.49,2.33-3.73,4.81-3.73h54.26c3.72,0,6.4,1.03,8.06,3.08,1.65,2.06,2.48,3.69,2.48,4.89,0,2.18-1.19,4-3.57,5.44-2.38,1.45-5.12,2.72-8.22,3.8-3.1,1.09-6.05,2.12-8.84,3.08-2.79.97-4.6,2.05-5.43,3.26l-50.23,68.16,65.42,117.69c1.03,1.86,3.25,3.48,6.67,4.88,3.41,1.39,7.49,2.78,12.25,4.18,1.86.47,3.3,1.11,4.34,1.92,1.03.81,1.55,2.38,1.55,4.7,0,1.16-.83,2.73-2.48,4.7-1.66,1.97-4.34,2.96-8.06,2.96h-58.29c-2.48,0-4.08-1.04-4.81-3.13-.73-2.09-1.09-3.83-1.09-5.22s.82-2.61,2.48-3.65c1.65-1.04,3.57-1.97,5.74-2.78,2.17-.81,4.39-1.57,6.67-2.27,2.27-.7,3.92-1.39,4.96-2.09l-52.4-99.59-31.63,41.44v51.53c0,3.48,1.13,5.86,3.41,7.14,2.27,1.28,4.81,2.21,7.6,2.79,2.79.58,5.32,1.33,7.6,2.26,2.27.93,3.41,2.9,3.41,5.92,0,1.16-.83,2.73-2.48,4.7-1.66,1.97-4.34,2.96-8.06,2.96h-51.78c-2.48,0-4.08-1.04-4.81-3.13-.73-2.09-1.08-3.83-1.08-5.22Z"/>
  <path class="st7" d="M324.32,270.3l-73.34-69.16c-45.23-42.65,23.7-115.75,68.93-73.1,40.1-42.53,113.44,26.63,73.34,69.16l-68.93,73.1Z"/>
  <path class="st9" d="M324.46,239.68c-8.27.09-31.65-29.35-48.31-45.56-38.58-36.39,6.98-84.7,45.56-48.31,35.52-37.67,83.83,7.9,48.31,45.56,0,0-37.29,48.23-45.56,48.31Z"/>
  <path class="st8" d="M371.03,102.66s-.28,10.65,8.72,18.1c8.99,7.45,23.55,15.9,23.55,15.9,0,0,6.6-5.1.97-12.28-5.63-7.18-33.23-21.71-33.23-21.71Z"/>
  <path class="st8" d="M372.16,63.16s-3.48,17.63,9.31,32.55c12.79,14.92,34.51,33.07,34.51,33.07,0,0,12.39-6.61,5.09-20.15-7.3-13.53-48.91-45.47-48.91-45.47Z"/>
  <g class="st5">
    <path d="M59.35,407.04c-.96,0-1.72-.29-2.28-.87-.56-.58-.84-1.31-.84-2.19v-35.88c0-.88.3-1.61.9-2.19.6-.58,1.38-.87,2.34-.87s1.66.29,2.22.87c.56.58.84,1.31.84,2.19v35.88c-.04.88-.34,1.61-.9,2.19-.56.58-1.32.87-2.28.87ZM85.81,364.86c.8,0,1.46.33,1.98.99.52.66.78,1.33.78,2.01s-.3,1.32-.9,1.92l-25.86,24.6-.36-7.14,21.9-21.24c.76-.76,1.58-1.14,2.46-1.14ZM85.51,407.1c-.92,0-1.66-.38-2.22-1.14l-14.94-19.26,4.62-4.68,15.24,19.86c.48.64.72,1.34.72,2.1,0,.96-.36,1.72-1.08,2.28-.72.56-1.5.84-2.34.84Z"/>
    <path d="M118.81,375.48c.84,0,1.55.29,2.13.87.58.58.87,1.31.87,2.19v15.78c0,4.16-1.16,7.41-3.48,9.75-2.32,2.34-5.6,3.51-9.84,3.51s-7.51-1.17-9.81-3.51c-2.3-2.34-3.45-5.59-3.45-9.75v-15.78c0-.88.29-1.61.87-2.19.58-.58,1.31-.87,2.19-.87s1.55.29,2.13.87c.58.58.87,1.31.87,2.19v15.78c0,2.6.61,4.54,1.83,5.82,1.22,1.28,3.01,1.92,5.37,1.92s4.21-.64,5.43-1.92c1.22-1.28,1.83-3.22,1.83-5.82v-15.78c0-.88.29-1.61.87-2.19.58-.58,1.31-.87,2.19-.87Z"/>
    <path d="M133.15,407.04c-.88,0-1.61-.29-2.19-.87-.58-.58-.87-1.31-.87-2.19v-25.44c0-.88.29-1.61.87-2.19.58-.58,1.31-.87,2.19-.87s1.55.29,2.13.87c.58.58.87,1.31.87,2.19v6.72l-.6-2.58c.32-1.12.81-2.16,1.47-3.12.66-.96,1.45-1.8,2.37-2.52.92-.72,1.95-1.28,3.09-1.68,1.14-.4,2.33-.6,3.57-.6,1.04,0,1.94.28,2.7.84.76.56,1.14,1.26,1.14,2.1,0,1.08-.28,1.87-.84,2.37-.56.5-1.18.75-1.86.75-.6,0-1.18-.13-1.74-.39-.56-.26-1.22-.39-1.98-.39-.84,0-1.7.22-2.58.66-.88.44-1.68,1.09-2.4,1.95-.72.86-1.29,1.87-1.71,3.03-.42,1.16-.63,2.46-.63,3.9v14.4c0,.88-.29,1.61-.87,2.19-.58.58-1.29.87-2.13.87Z"/>
    <path d="M154.81,375.84h14.1c.8,0,1.47.27,2.01.81s.81,1.21.81,2.01-.27,1.46-.81,1.98c-.54.52-1.21.78-2.01.78h-14.1c-.8,0-1.47-.27-2.01-.81s-.81-1.21-.81-2.01.27-1.46.81-1.98c.54-.52,1.21-.78,2.01-.78ZM161.11,368.04c.88,0,1.6.29,2.16.87.56.58.84,1.31.84,2.19v27.84c0,.72.12,1.3.36,1.74.24.44.57.74.99.9.42.16.85.24,1.29.24s.83-.08,1.17-.24c.34-.16.75-.24,1.23-.24s.92.22,1.32.66c.4.44.6,1.04.6,1.8,0,.96-.52,1.74-1.56,2.34-1.04.6-2.16.9-3.36.9-.68,0-1.48-.06-2.4-.18-.92-.12-1.81-.42-2.67-.9-.86-.48-1.58-1.25-2.16-2.31-.58-1.06-.87-2.55-.87-4.47v-28.08c0-.88.3-1.61.9-2.19.6-.58,1.32-.87,2.16-.87Z"/>
    <path d="M180.97,371.28c-1.16,0-2-.21-2.52-.63-.52-.42-.78-1.13-.78-2.13v-.96c0-1,.28-1.7.84-2.1.56-.4,1.4-.6,2.52-.6,1.2,0,2.06.21,2.58.63.52.42.78,1.11.78,2.07v.96c0,1.04-.27,1.76-.81,2.16-.54.4-1.41.6-2.61.6ZM184.03,403.98c0,.88-.28,1.61-.84,2.19-.56.58-1.28.87-2.16.87s-1.6-.29-2.16-.87c-.56-.58-.84-1.31-.84-2.19v-25.68c0-.88.29-1.61.87-2.19.58-.58,1.29-.87,2.13-.87s1.6.29,2.16.87c.56.58.84,1.31.84,2.19v25.68Z"/>
    <path d="M190.27,402.12c-.36-.56-.52-1.21-.48-1.95.04-.74.46-1.37,1.26-1.89.56-.36,1.15-.51,1.77-.45.62.06,1.21.37,1.77.93,1.12,1.24,2.37,2.22,3.75,2.94,1.38.72,3.05,1.08,5.01,1.08.8-.04,1.62-.17,2.46-.39.84-.22,1.56-.62,2.16-1.2.6-.58.9-1.43.9-2.55,0-1-.32-1.79-.96-2.37-.64-.58-1.48-1.07-2.52-1.47-1.04-.4-2.18-.76-3.42-1.08-1.28-.36-2.56-.76-3.84-1.2-1.28-.44-2.45-1.01-3.51-1.71-1.06-.7-1.91-1.61-2.55-2.73-.64-1.12-.96-2.5-.96-4.14,0-1.88.52-3.5,1.56-4.86,1.04-1.36,2.42-2.42,4.14-3.18,1.72-.76,3.56-1.14,5.52-1.14,1.2,0,2.44.15,3.72.45,1.28.3,2.52.77,3.72,1.41,1.2.64,2.24,1.48,3.12,2.52.4.52.63,1.14.69,1.86.06.72-.27,1.38-.99,1.98-.48.4-1.06.57-1.74.51-.68-.06-1.24-.29-1.68-.69-.76-.96-1.74-1.7-2.94-2.22-1.2-.52-2.56-.78-4.08-.78-.76,0-1.55.1-2.37.3-.82.2-1.51.58-2.07,1.14-.56.56-.84,1.38-.84,2.46,0,1,.33,1.8.99,2.4.66.6,1.53,1.1,2.61,1.5,1.08.4,2.26.76,3.54,1.08,1.24.32,2.47.7,3.69,1.14,1.22.44,2.32,1.01,3.3,1.71.98.7,1.78,1.6,2.4,2.7s.93,2.49.93,4.17c0,1.96-.57,3.63-1.71,5.01-1.14,1.38-2.58,2.43-4.32,3.15-1.74.72-3.57,1.08-5.49,1.08-2.28,0-4.55-.41-6.81-1.23-2.26-.82-4.17-2.25-5.73-4.29Z"/>
    <path d="M269.65,365.04c.8,0,1.45.27,1.95.81s.75,1.21.75,2.01v36.12c0,.88-.29,1.61-.87,2.19-.58.58-1.31.87-2.19.87-.44,0-.88-.08-1.32-.24-.44-.16-.78-.38-1.02-.66l-24.66-31.92,1.38-.84v30.9c0,.76-.26,1.41-.78,1.95s-1.18.81-1.98.81c-.84,0-1.51-.27-2.01-.81-.5-.54-.75-1.19-.75-1.95v-36.18c0-.88.29-1.61.87-2.19.58-.58,1.31-.87,2.19-.87.44,0,.91.09,1.41.27.5.18.87.45,1.11.81l24.06,31.32-.9.84v-30.42c0-.8.25-1.47.75-2.01s1.17-.81,2.01-.81Z"/>
    <path d="M294.61,374.76c1.68,0,3.24.28,4.68.84,1.44.56,2.69,1.27,3.75,2.13s1.89,1.75,2.49,2.67c.6.92.9,1.72.9,2.4l-1.32.06v-4.8c0-.84.28-1.56.84-2.16.56-.6,1.28-.9,2.16-.9s1.6.29,2.16.87c.56.58.84,1.31.84,2.19v26.52c0,3.36-.72,6.11-2.16,8.25-1.44,2.14-3.35,3.71-5.73,4.71-2.38,1-4.99,1.5-7.83,1.5-1,0-2.18-.13-3.54-.39-1.36-.26-2.61-.57-3.75-.93-1.14-.36-1.93-.72-2.37-1.08-.92-.48-1.53-1.04-1.83-1.68-.3-.64-.31-1.28-.03-1.92.36-.88.89-1.42,1.59-1.62.7-.2,1.49-.14,2.37.18.36.12.97.34,1.83.66s1.81.61,2.85.87c1.04.26,2.02.39,2.94.39,3.16,0,5.56-.74,7.2-2.22,1.64-1.48,2.46-3.48,2.46-6v-5.4l.66.42c-.12.8-.5,1.63-1.14,2.49-.64.86-1.45,1.65-2.43,2.37-.98.72-2.12,1.31-3.42,1.77-1.3.46-2.63.69-3.99.69-2.84,0-5.39-.71-7.65-2.13-2.26-1.42-4.04-3.36-5.34-5.82-1.3-2.46-1.95-5.29-1.95-8.49s.65-6.03,1.95-8.49c1.3-2.46,3.07-4.4,5.31-5.82,2.24-1.42,4.74-2.13,7.5-2.13ZM295.51,380.34c-1.96,0-3.68.47-5.16,1.41-1.48.94-2.64,2.23-3.48,3.87-.84,1.64-1.26,3.5-1.26,5.58s.42,3.94,1.26,5.58c.84,1.64,2,2.94,3.48,3.9,1.48.96,3.2,1.44,5.16,1.44s3.62-.47,5.1-1.41c1.48-.94,2.64-2.24,3.48-3.9.84-1.66,1.26-3.53,1.26-5.61s-.42-3.94-1.26-5.58c-.84-1.64-2-2.93-3.48-3.87-1.48-.94-3.18-1.41-5.1-1.41Z"/>
    <path d="M342.97,375.48c.84,0,1.55.29,2.13.87.58.58.87,1.31.87,2.19v15.78c0,4.16-1.16,7.41-3.48,9.75-2.32,2.34-5.6,3.51-9.84,3.51s-7.51-1.17-9.81-3.51c-2.3-2.34-3.45-5.59-3.45-9.75v-15.78c0-.88.29-1.61.87-2.19.58-.58,1.31-.87,2.19-.87s1.55.29,2.13.87c.58.58.87,1.31.87,2.19v15.78c0,2.6.61,4.54,1.83,5.82,1.22,1.28,3.01,1.92,5.37,1.92s4.21-.64,5.43-1.92c1.22-1.28,1.83-3.22,1.83-5.82v-15.78c0-.88.29-1.61.87-2.19s1.31-.87,2.19-.87Z"/>
    <path d="M377.77,375.24c.88,0,1.6.29,2.16.87.56.58.84,1.31.84,2.19v25.8c0,3.52-.67,6.38-2.01,8.58-1.34,2.2-3.14,3.81-5.4,4.83-2.26,1.02-4.81,1.53-7.65,1.53-1.44,0-2.88-.13-4.32-.39-1.44-.26-2.62-.61-3.54-1.05-.96-.44-1.64-.99-2.04-1.65-.4-.66-.46-1.37-.18-2.13.28-.96.76-1.61,1.44-1.95.68-.34,1.38-.37,2.1-.09.68.28,1.58.64,2.7,1.08,1.12.44,2.4.66,3.84.66,1.96,0,3.61-.32,4.95-.96,1.34-.64,2.37-1.64,3.09-3,.72-1.36,1.08-3.12,1.08-5.28v-4.14l.96,1.5c-.64,1.28-1.49,2.36-2.55,3.24-1.06.88-2.29,1.56-3.69,2.04-1.4.48-2.96.72-4.68.72-2.2,0-4.09-.49-5.67-1.47s-2.8-2.34-3.66-4.08-1.29-3.73-1.29-5.97v-17.82c0-.88.29-1.61.87-2.19s1.31-.87,2.19-.87,1.55.29,2.13.87c.58.58.87,1.31.87,2.19v16.2c0,2.64.58,4.57,1.74,5.79,1.16,1.22,2.88,1.83,5.16,1.83,1.52,0,2.84-.32,3.96-.96,1.12-.64,2-1.53,2.64-2.67.64-1.14.96-2.47.96-3.99v-16.2c0-.88.28-1.61.84-2.19.56-.58,1.28-.87,2.16-.87Z"/>
    <path d="M403.87,407.64c-3.32,0-6.2-.69-8.64-2.07-2.44-1.38-4.33-3.28-5.67-5.7-1.34-2.42-2.01-5.19-2.01-8.31,0-3.52.71-6.53,2.13-9.03,1.42-2.5,3.27-4.42,5.55-5.76,2.28-1.34,4.7-2.01,7.26-2.01,1.96,0,3.82.39,5.58,1.17,1.76.78,3.33,1.86,4.71,3.24,1.38,1.38,2.47,3,3.27,4.86.8,1.86,1.22,3.89,1.26,6.09-.04.8-.36,1.46-.96,1.98-.6.52-1.3.78-2.1.78h-23.34l-1.44-5.1h22.56l-1.14,1.08v-1.5c-.12-1.4-.6-2.62-1.44-3.66-.84-1.04-1.87-1.86-3.09-2.46-1.22-.6-2.51-.9-3.87-.9-1.2,0-2.35.19-3.45.57-1.1.38-2.08.99-2.94,1.83-.86.84-1.54,1.95-2.04,3.33s-.75,3.09-.75,5.13c0,2.2.46,4.12,1.38,5.76.92,1.64,2.16,2.91,3.72,3.81,1.56.9,3.28,1.35,5.16,1.35,1.48,0,2.69-.15,3.63-.45.94-.3,1.74-.67,2.4-1.11.66-.44,1.23-.86,1.71-1.26.6-.36,1.18-.54,1.74-.54.76,0,1.38.25,1.86.75.48.5.72,1.09.72,1.77,0,.88-.44,1.68-1.32,2.4-1.08,1.04-2.57,1.96-4.47,2.76-1.9.8-3.89,1.2-5.97,1.2Z"/>
    <path d="M440.34,374.76c2.84,0,5.04.59,6.6,1.77,1.56,1.18,2.65,2.76,3.27,4.74.62,1.98.93,4.19.93,6.63v16.08c0,.88-.29,1.61-.87,2.19-.58.58-1.29.87-2.13.87s-1.61-.29-2.19-.87c-.58-.58-.87-1.31-.87-2.19v-16.02c0-1.44-.2-2.73-.6-3.87-.4-1.14-1.08-2.05-2.04-2.73-.96-.68-2.32-1.02-4.08-1.02-1.64,0-3.08.34-4.32,1.02-1.24.68-2.21,1.59-2.91,2.73-.7,1.14-1.05,2.43-1.05,3.87v16.02c0,.88-.29,1.61-.87,2.19s-1.29.87-2.13.87c-.88,0-1.61-.29-2.19-.87-.58-.58-.87-1.31-.87-2.19v-25.44c0-.88.29-1.61.87-2.19.58-.58,1.31-.87,2.19-.87s1.55.29,2.13.87c.58.58.87,1.31.87,2.19v3.36l-1.08.6c.28-.88.77-1.77,1.47-2.67.7-.9,1.55-1.74,2.55-2.52,1-.78,2.12-1.4,3.36-1.86,1.24-.46,2.56-.69,3.96-.69Z"/>
  </g>
  <g class="st5">
    <path d="M162.76,420.95c2.4,0,4.48.46,6.24,1.37,1.76.91,3.21,2.16,4.34,3.74,1.14,1.58,1.98,3.38,2.52,5.4.54,2.02.82,4.11.82,6.29,0,3.07-.49,5.88-1.46,8.42s-2.49,4.58-4.54,6.1c-2.05,1.52-4.69,2.28-7.92,2.28h-12.48c-.26,0-.48-.1-.67-.29s-.29-.42-.29-.67v-31.68c0-.26.1-.48.29-.67.19-.19.42-.29.67-.29h12.48ZM162.28,452.63c2.94,0,5.32-.66,7.13-1.99,1.81-1.33,3.14-3.12,3.98-5.38.85-2.26,1.27-4.76,1.27-7.51,0-1.95-.23-3.82-.7-5.62-.46-1.79-1.19-3.38-2.18-4.78-.99-1.39-2.27-2.49-3.84-3.29-1.57-.8-3.46-1.2-5.66-1.2h-11.23l.29-.38v30.58l-.29-.43h11.23Z"/>
    <path d="M193.86,455.03c-2.4,0-4.52-.51-6.36-1.54-1.84-1.02-3.29-2.47-4.34-4.34s-1.58-4.07-1.58-6.6c0-2.69.52-4.98,1.56-6.86,1.04-1.89,2.38-3.34,4.03-4.34,1.65-1.01,3.4-1.51,5.26-1.51,1.34,0,2.66.22,3.94.65,1.28.43,2.42,1.1,3.43,2.02,1.01.91,1.82,2.05,2.45,3.41.62,1.36.97,2.98,1.03,4.87,0,.26-.1.49-.29.7-.19.21-.42.31-.67.31h-19.58l-.29-1.82h19.34l-.48.43v-.86c-.16-1.7-.7-3.12-1.61-4.27-.91-1.15-2.01-2.02-3.29-2.62-1.28-.59-2.61-.89-3.98-.89-.96,0-1.97.22-3.02.65-1.06.43-2.03,1.09-2.93,1.97-.9.88-1.62,1.99-2.18,3.34-.56,1.34-.84,2.91-.84,4.7,0,1.95.39,3.74,1.18,5.38.78,1.63,1.95,2.94,3.5,3.94,1.55.99,3.46,1.49,5.74,1.49,1.09,0,2.11-.18,3.07-.55.96-.37,1.82-.86,2.59-1.46.77-.61,1.39-1.26,1.87-1.97.26-.29.53-.43.82-.43.22,0,.42.09.58.26.16.18.24.38.24.6s-.06.42-.19.58c-.99,1.28-2.26,2.4-3.82,3.36-1.55.96-3.27,1.44-5.16,1.44Z"/>
    <path d="M208.4,450.71c-.22-.38-.33-.7-.31-.94.02-.24.14-.44.36-.6.16-.16.38-.23.65-.22.27.02.5.14.7.36.83,1.18,1.9,2.14,3.19,2.88s2.82,1.1,4.58,1.1c1.06,0,2.07-.18,3.05-.53.98-.35,1.78-.88,2.4-1.58.62-.7.94-1.57.94-2.59,0-1.09-.3-1.96-.91-2.62-.61-.66-1.39-1.18-2.35-1.56-.96-.38-1.97-.7-3.02-.96-1.12-.29-2.18-.62-3.19-.98-1.01-.37-1.9-.83-2.66-1.39-.77-.56-1.38-1.22-1.82-1.99-.45-.77-.67-1.68-.67-2.74,0-1.25.34-2.37,1.01-3.36s1.62-1.77,2.83-2.33c1.22-.56,2.62-.84,4.22-.84.77,0,1.58.1,2.45.29.86.19,1.73.52,2.59.98.86.46,1.66,1.11,2.4,1.94.26.19.38.42.36.7-.02.27-.14.52-.36.74-.19.13-.4.19-.62.19s-.42-.1-.58-.29c-.83-.93-1.8-1.62-2.9-2.06s-2.28-.67-3.53-.67c-1.06,0-2.04.18-2.95.53-.91.35-1.66.87-2.23,1.56-.58.69-.86,1.56-.86,2.62.06.99.41,1.81,1.03,2.45.62.64,1.46,1.17,2.5,1.58,1.04.42,2.22.8,3.53,1.15,1.06.26,2.04.55,2.95.89.91.34,1.71.76,2.4,1.27.69.51,1.23,1.15,1.63,1.92.4.77.6,1.73.6,2.88,0,1.34-.36,2.5-1.08,3.48-.72.98-1.71,1.73-2.98,2.26-1.26.53-2.71.79-4.34.79s-3.26-.34-4.8-1.01-2.93-1.78-4.18-3.31Z"/>
    <path d="M233.03,426.57c-.51,0-.92-.14-1.22-.43-.3-.29-.46-.66-.46-1.1v-.38c0-.45.16-.82.48-1.1.32-.29.74-.43,1.25-.43.45,0,.82.14,1.13.43.3.29.46.66.46,1.1v.38c0,.45-.15.82-.46,1.1-.3.29-.7.43-1.18.43ZM233.99,453.59c0,.26-.1.48-.29.67-.19.19-.42.29-.67.29-.29,0-.52-.1-.7-.29-.18-.19-.26-.42-.26-.67v-22.8c0-.26.1-.48.29-.67.19-.19.42-.29.67-.29.29,0,.52.1.7.29.18.19.26.42.26.67v22.8Z"/>
    <path d="M252.08,429.83c1.44,0,2.78.26,4.03.77,1.25.51,2.34,1.18,3.29,2.02.94.83,1.68,1.73,2.21,2.69s.79,1.9.79,2.83l-.62-1.78v-4.8c0-.26.09-.48.26-.67s.41-.29.7-.29.52.1.7.29c.18.19.26.42.26.67v20.64c0,2.46-.5,4.59-1.51,6.38-1.01,1.79-2.39,3.17-4.15,4.13s-3.81,1.44-6.14,1.44c-1.28,0-2.57-.17-3.86-.5-1.3-.34-2.38-.76-3.24-1.27-.86-.51-1.3-1.06-1.3-1.63,0-.26.07-.46.22-.62.14-.16.34-.24.6-.24.32,0,.62.18.89.53.27.35.76.67,1.46.96.29.1.68.22,1.18.38.5.16,1.1.29,1.8.41.7.11,1.49.17,2.35.17,3.04,0,5.43-.94,7.18-2.81s2.62-4.31,2.62-7.32v-4.75l.48.05c-.38,1.38-.94,2.54-1.68,3.5s-1.58,1.74-2.52,2.33c-.94.59-1.94,1.02-2.98,1.3s-2.04.41-3,.41c-2.21,0-4.18-.55-5.93-1.66-1.74-1.1-3.13-2.61-4.15-4.51-1.02-1.9-1.54-4.06-1.54-6.46s.51-4.55,1.54-6.46c1.02-1.9,2.41-3.4,4.15-4.49,1.74-1.09,3.72-1.63,5.93-1.63ZM252.18,431.66c-1.86,0-3.53.46-5.02,1.39-1.49.93-2.66,2.2-3.5,3.82-.85,1.62-1.27,3.46-1.27,5.54s.42,3.89,1.27,5.52c.85,1.63,2.02,2.92,3.5,3.86,1.49.94,3.16,1.42,5.02,1.42s3.52-.46,4.99-1.37c1.47-.91,2.64-2.18,3.5-3.79.86-1.62,1.3-3.5,1.3-5.64s-.43-4.02-1.3-5.64c-.86-1.62-2.03-2.87-3.5-3.77-1.47-.9-3.14-1.34-4.99-1.34Z"/>
    <path d="M282.56,429.83c2.02,0,3.66.4,4.92,1.2,1.26.8,2.19,1.89,2.78,3.26s.89,2.91.89,4.61v14.69c0,.26-.1.48-.29.67-.19.19-.42.29-.67.29-.29,0-.52-.1-.7-.29-.18-.19-.26-.42-.26-.67v-14.5c0-1.38-.23-2.62-.7-3.74-.46-1.12-1.2-2.02-2.21-2.69s-2.33-1.01-3.96-1.01c-1.41,0-2.78.34-4.13,1.01-1.34.67-2.46,1.57-3.34,2.69-.88,1.12-1.32,2.37-1.32,3.74v14.5c0,.26-.1.48-.29.67s-.42.29-.67.29c-.29,0-.52-.1-.7-.29s-.26-.42-.26-.67v-22.03c0-.26.1-.48.29-.67.19-.19.42-.29.67-.29.29,0,.52.1.7.29.17.19.26.42.26.67v4.7l-1.2,2.3c0-1.15.3-2.26.91-3.31.61-1.06,1.41-1.99,2.4-2.81.99-.82,2.09-1.46,3.29-1.92,1.2-.46,2.39-.7,3.58-.7Z"/>
    <path d="M309.92,455.03c-2.4,0-4.52-.51-6.36-1.54-1.84-1.02-3.29-2.47-4.34-4.34-1.06-1.87-1.58-4.07-1.58-6.6,0-2.69.52-4.98,1.56-6.86,1.04-1.89,2.38-3.34,4.03-4.34,1.65-1.01,3.4-1.51,5.26-1.51,1.34,0,2.66.22,3.94.65,1.28.43,2.42,1.1,3.43,2.02s1.82,2.05,2.45,3.41c.62,1.36.97,2.98,1.03,4.87,0,.26-.1.49-.29.7-.19.21-.42.31-.67.31h-19.58l-.29-1.82h19.34l-.48.43v-.86c-.16-1.7-.7-3.12-1.61-4.27s-2.01-2.02-3.29-2.62c-1.28-.59-2.61-.89-3.98-.89-.96,0-1.97.22-3.02.65-1.06.43-2.03,1.09-2.93,1.97-.9.88-1.62,1.99-2.18,3.34-.56,1.34-.84,2.91-.84,4.7,0,1.95.39,3.74,1.18,5.38.78,1.63,1.95,2.94,3.5,3.94,1.55.99,3.46,1.49,5.74,1.49,1.09,0,2.11-.18,3.07-.55.96-.37,1.82-.86,2.59-1.46.77-.61,1.39-1.26,1.87-1.97.26-.29.53-.43.82-.43.22,0,.42.09.58.26.16.18.24.38.24.6s-.06.42-.19.58c-.99,1.28-2.26,2.4-3.82,3.36-1.55.96-3.27,1.44-5.16,1.44Z"/>
    <path d="M326.77,454.55c-.29,0-.52-.1-.7-.29-.18-.19-.26-.42-.26-.67v-22.03c0-.26.1-.48.29-.67.19-.19.42-.29.67-.29.29,0,.52.1.7.29s.26.42.26.67v8.11l-.82,1.25c0-1.25.22-2.51.65-3.79.43-1.28,1.06-2.47,1.9-3.58s1.85-2,3.05-2.69c1.2-.69,2.58-1.03,4.15-1.03.45,0,.93.06,1.44.19.51.13.77.43.77.91,0,.29-.08.53-.24.72-.16.19-.37.29-.62.29-.19,0-.42-.07-.7-.22-.27-.14-.67-.22-1.18-.22-1.02,0-2.03.3-3.02.91-.99.61-1.9,1.42-2.71,2.42-.82,1.01-1.46,2.1-1.94,3.29-.48,1.18-.72,2.34-.72,3.46v12c0,.26-.1.48-.29.67-.19.19-.42.29-.67.29Z"/>
  </g>
</svg>